<svg xmlns="http://www.w3.org/2000/svg" viewBox="0 0 32 32">
  <rect width="32" height="32" rx="7" fill="#0B0B0B"/>
  <path d="M9 23V9h6.4c2.6 0 4.4 1.6 4.4 4.1 0 2.4-1.7 4-4.3 4h-3.2v5.9H9zm3.3-8.4h2.6c1.2 0 1.9-.6 1.9-1.6 0-1-.7-1.6-1.9-1.6h-2.6v3.2z" fill="#F5F2EC"/>
  <path d="M22.5 23.2c-1.7 0-3-.9-3-2.4 0-1.6 1.3-2.4 3.6-2.5l2-.1V18c0-.7-.5-1-1.4-1-.9 0-1.4.3-1.5 1h-2.3c.1-1.9 1.5-2.9 3.9-2.9 2.3 0 3.7 1 3.7 2.7v5.4h-2.4v-1.2c-.5.8-1.4 1.2-2.6 1.2zm.9-1.7c.8 0 1.5-.4 1.7-1.1v-.6l-1.6.1c-.7 0-1.1.3-1.1.8 0 .5.4.8 1 .8z" fill="#7C3AED"/>
</svg>
